<?xml version="1.0" standalone="no"?><!DOCTYPE svg PUBLIC "-//W3C//DTD SVG 1.1//EN" "http://www.w3.org/Graphics/SVG/1.1/DTD/svg11.dtd"><svg t="1523585264228" class="icon" style="" viewBox="0 0 1024 1024" version="1.1" xmlns="http://www.w3.org/2000/svg" p-id="2676" xmlns:xlink="http://www.w3.org/1999/xlink" width="200" height="200"><defs><style type="text/css"></style></defs><path d="M323.593 815.12h-58.176a6.326 6.326 0 0 1 0-12.652h16.929a6.326 6.326 0 1 0 0-12.652h-99.343a6.327 6.327 0 0 0 0 12.652h58.022a6.326 6.326 0 0 1 0 12.652h-16.776a6.327 6.327 0 0 0 0 12.652h99.344a6.326 6.326 0 0 0 0-12.652z" fill="#D2221A" p-id="2677"></path><path d="M597.689 281.335a2.116 2.116 0 1 1 1.967-3.748l12.649 6.642a2.115 2.115 0 1 1-1.966 3.748l-12.65-6.642zM600.058 273.216a2.117 2.117 0 0 1-2.651-1.395 2.115 2.115 0 0 1 1.393-2.65l13.639-4.248a2.118 2.118 0 0 1 1.26 4.044l-13.641 4.249zM595.988 265.798a2.118 2.118 0 0 1-2.86 0.891 2.119 2.119 0 0 1-0.889-2.859l6.642-12.648a2.117 2.117 0 1 1 3.749 1.968l-6.642 12.648zM587.867 263.431a2.118 2.118 0 0 1-4.044 1.258l-4.247-13.64a2.114 2.114 0 0 1 1.393-2.65 2.112 2.112 0 0 1 2.65 1.393l4.248 13.639zM580.45 267.498a2.118 2.118 0 0 1-1.967 3.751l-12.649-6.642a2.117 2.117 0 0 1-0.89-2.858 2.115 2.115 0 0 1 2.858-0.891l12.648 6.64zM578.083 275.619a2.117 2.117 0 0 1 2.651 1.395 2.117 2.117 0 0 1-1.393 2.651l-13.64 4.246a2.115 2.115 0 0 1-2.65-1.391 2.113 2.113 0 0 1 1.392-2.65l13.64-4.251zM582.15 283.036a2.119 2.119 0 0 1 3.752 1.969l-6.641 12.649a2.117 2.117 0 1 1-3.75-1.968l6.639-12.65zM590.272 285.405a2.118 2.118 0 0 1 1.393-2.651 2.115 2.115 0 0 1 2.651 1.392l4.249 13.64a2.121 2.121 0 0 1-1.392 2.651 2.115 2.115 0 0 1-2.651-1.392l-4.25-13.64z" fill="#D2221A" p-id="2678"></path><path d="M696.875 227.359a7.586 7.586 0 0 1-3.559-0.881 7.627 7.627 0 0 1-3.758-4.511 7.629 7.629 0 0 1 0.532-5.847 7.66 7.66 0 0 1 6.8-4.106c1.247 0 2.443 0.296 3.558 0.881a7.622 7.622 0 0 1 3.759 4.511 7.619 7.619 0 0 1-0.532 5.845 7.658 7.658 0 0 1-6.8 4.108z" fill="#FFFFFF" p-id="2679"></path><path d="M696.892 214.014c0.919 0 1.803 0.219 2.627 0.652a5.633 5.633 0 0 1 2.779 3.334 5.627 5.627 0 0 1-0.395 4.322 5.661 5.661 0 0 1-5.028 3.037 5.677 5.677 0 0 1-5.014-8.308 5.667 5.667 0 0 1 5.031-3.037m-0.001-4a9.668 9.668 0 0 0-8.57 5.177c-2.482 4.729-0.662 10.575 4.066 13.058a9.668 9.668 0 0 0 13.058-4.067c2.483-4.727 0.662-10.574-4.067-13.057a9.62 9.62 0 0 0-4.487-1.111z" fill="#D2221A" p-id="2680"></path><path d="M611.08 164.004a4.769 4.769 0 0 1-2.244-0.557 4.8 4.8 0 0 1-2.37-2.844 4.805 4.805 0 0 1 0.336-3.687 4.828 4.828 0 0 1 6.531-2.035 4.808 4.808 0 0 1 2.371 2.845 4.8 4.8 0 0 1-0.337 3.687 4.826 4.826 0 0 1-4.287 2.591z" fill="#FFFFFF" p-id="2681"></path><path d="M611.09 156.325c0.459 0 0.9 0.11 1.313 0.326a2.825 2.825 0 0 1 1.392 1.67 2.815 2.815 0 0 1-0.198 2.163 2.832 2.832 0 0 1-3.832 1.192 2.818 2.818 0 0 1-1.389-1.667 2.818 2.818 0 0 1 0.198-2.163 2.83 2.83 0 0 1 2.516-1.521m0-4a6.836 6.836 0 0 0-6.059 3.661 6.835 6.835 0 0 0 2.874 9.231 6.837 6.837 0 0 0 9.233-2.874 6.835 6.835 0 0 0-2.875-9.233 6.819 6.819 0 0 0-3.173-0.785z" fill="#D2221A" p-id="2682"></path><path d="M712.016 363.059a4.769 4.769 0 0 1-2.244-0.557 4.8 4.8 0 0 1-2.37-2.844 4.807 4.807 0 0 1 0.336-3.688 4.83 4.83 0 0 1 6.531-2.034 4.808 4.808 0 0 1 2.371 2.845 4.808 4.808 0 0 1-0.337 3.688 4.83 4.83 0 0 1-4.287 2.59z" fill="#FFFFFF" p-id="2683"></path><path d="M712.026 355.38c0.458 0 0.899 0.11 1.312 0.326 0.672 0.353 1.166 0.946 1.392 1.669s0.155 1.491-0.198 2.164a2.832 2.832 0 0 1-3.832 1.192 2.818 2.818 0 0 1-1.389-1.667 2.825 2.825 0 0 1 0.197-2.164 2.834 2.834 0 0 1 2.518-1.52m-0.001-4a6.837 6.837 0 0 0-6.059 3.66 6.836 6.836 0 0 0 2.874 9.232 6.837 6.837 0 0 0 9.233-2.874 6.835 6.835 0 0 0-2.875-9.233 6.8 6.8 0 0 0-3.173-0.785z" fill="#D2221A" p-id="2684"></path><path d="M840.479 470.283a4.786 4.786 0 0 1-2.245-0.556 4.844 4.844 0 0 1-2.032-6.532 4.83 4.83 0 0 1 6.531-2.034 4.846 4.846 0 0 1 2.034 6.533 4.83 4.83 0 0 1-4.288 2.589z" fill="#FFFFFF" p-id="2685"></path><path d="M840.492 462.604a2.843 2.843 0 0 1 2.505 4.159 2.837 2.837 0 0 1-3.833 1.194 2.84 2.84 0 0 1 1.328-5.353m-0.001-4a6.84 6.84 0 0 0-6.06 3.661 6.837 6.837 0 0 0 6.048 10.018 6.837 6.837 0 0 0 6.059-3.661 6.837 6.837 0 0 0-6.047-10.018zM473.764 267.804a2.665 2.665 0 0 1-1.121-3.6 2.665 2.665 0 0 1 3.601-1.121l18.442 9.684a2.665 2.665 0 0 1 1.121 3.601 2.665 2.665 0 0 1-3.6 1.121l-18.443-9.685z" fill="#D2221A" p-id="2686"></path><path d="M486.706 259.823a2.668 2.668 0 0 1 4.722 2.48l-9.685 18.443a2.667 2.667 0 0 1-3.601 1.121 2.665 2.665 0 0 1-1.121-3.601l9.685-18.443zM557.666 417.897a2.267 2.267 0 0 1-0.955-3.061 2.27 2.27 0 0 1 3.063-0.954l15.688 8.237a2.268 2.268 0 0 1 0.953 3.063 2.27 2.27 0 0 1-3.063 0.952l-15.686-8.237z" fill="#D2221A" p-id="2687"></path><path d="M568.672 411.11a2.27 2.27 0 0 1 4.017 2.11l-8.237 15.687a2.27 2.27 0 0 1-3.063 0.954 2.27 2.27 0 0 1-0.954-3.064l8.237-15.687zM777.287 285.647a2.269 2.269 0 0 1-0.954-3.062 2.27 2.27 0 0 1 3.063-0.954l15.687 8.236a2.268 2.268 0 0 1-2.109 4.015l-15.687-8.235z" fill="#D2221A" p-id="2688"></path><path d="M788.294 278.86a2.268 2.268 0 1 1 4.016 2.109l-8.236 15.686a2.27 2.27 0 0 1-4.017-2.109l8.237-15.686z" fill="#D2221A" p-id="2689"></path><path d="M657.239 567.571a2.115 2.115 0 1 1-1.679-3.885l13.114-5.669a2.117 2.117 0 0 1 2.783 1.104 2.115 2.115 0 0 1-1.103 2.782l-13.115 5.668zM652.41 560.629a2.117 2.117 0 1 1-3.938-1.562l5.264-13.279a2.118 2.118 0 0 1 3.938 1.56l-5.264 13.281zM644.082 559.134a2.117 2.117 0 1 1-3.887 1.68l-5.668-13.114a2.116 2.116 0 0 1 1.104-2.781 2.114 2.114 0 0 1 2.783 1.103l5.668 13.112zM637.139 563.966a2.117 2.117 0 0 1-1.561 3.936l-13.281-5.267a2.115 2.115 0 0 1-1.187-2.747 2.113 2.113 0 0 1 2.748-1.188l13.281 5.266zM635.643 572.291a2.122 2.122 0 0 1 2.787 1.104 2.12 2.12 0 0 1-1.104 2.784l-13.114 5.667a2.117 2.117 0 0 1-2.783-1.104 2.115 2.115 0 0 1 1.104-2.783l13.11-5.668zM640.475 579.235a2.12 2.12 0 0 1 2.751-1.188 2.12 2.12 0 0 1 1.188 2.75l-5.266 13.279a2.118 2.118 0 0 1-2.748 1.188 2.115 2.115 0 0 1-1.188-2.748l5.263-13.281zM648.802 580.73a2.118 2.118 0 0 1 3.887-1.682l5.669 13.114a2.123 2.123 0 0 1-1.104 2.785 2.116 2.116 0 0 1-2.783-1.105l-5.669-13.112zM655.746 575.899a2.117 2.117 0 1 1 1.561-3.937l13.281 5.264a2.117 2.117 0 1 1-1.561 3.937l-13.281-5.264z" fill="#D2221A" p-id="2690"></path><path d="M668.716 482.138a2.268 2.268 0 0 1-2.981-1.182 2.27 2.27 0 0 1 1.182-2.982l16.265-7.029a2.267 2.267 0 0 1 1.798 4.163l-16.264 7.03z" fill="#D2221A" p-id="2691"></path><path d="M670.351 469.31a2.268 2.268 0 1 1 4.165-1.799l7.029 16.263a2.27 2.27 0 0 1-4.166 1.8l-7.028-16.264z" fill="#D2221A" p-id="2692"></path><path d="M432.99 868.141c-68.67-0.005-120.262-40.876-138.008-109.33-28.577-110.234-42.234-202.53-40.594-274.324 1.212-53.037 10.624-94.072 27.975-121.964 17.024-27.367 35.86-31.542 36.049-31.582 0.341-0.064 0.623-0.147 0.947-0.269a64.953 64.953 0 0 1 22.915-4.144c23.654 0 50.054 12.354 78.469 36.718 24.998 21.434 51.103 51.721 77.59 90.02 48.552 70.202 87.958 152.82 104.025 199.875 15.84 46.391 13.297 90.39-7.354 127.239-18.323 32.694-50.583 58.996-90.836 74.059-24.295 9.091-48.24 13.701-71.164 13.701l-0.014 0.001z" fill="#FFFFFF" p-id="2693"></path><path d="M342.273 332.528c22.18 0 47.267 11.868 74.563 35.273 24.607 21.1 50.366 51.002 76.561 88.877 48.226 69.73 87.344 151.726 103.282 198.4 7.978 23.363 11.205 46.028 9.594 67.366-1.48 19.598-7.033 38.103-16.504 55.002-17.631 31.459-48.777 56.807-87.705 71.372-23.622 8.84-46.862 13.321-69.076 13.321-65.761 0-115.181-39.191-132.199-104.835-28.247-108.961-41.851-200.228-40.434-271.264 1.037-51.991 9.957-92.16 26.511-119.39 15.086-24.815 31.038-29.4 32.7-29.819 0.768-0.121 1.14-0.259 1.901-0.544a59.019 59.019 0 0 1 20.806-3.759m0-12c-8.47 0-16.822 1.447-25.023 4.526 0 0-134.365 25.252-28.076 435.262 18.873 72.8 74.463 113.824 143.816 113.824 23.178 0 47.881-4.577 73.281-14.082 79.525-29.758 137.133-105.276 101.766-208.856-32.792-96.032-158.005-330.674-265.764-330.674z" fill="#D2221A" p-id="2694"></path><path d="M506.271 860.059c40.056-14.988 74.544-41.592 94.398-77.538-26.006-91.593-126.064-404.874-289.098-449.334 0 0-67.083 81.558 24.128 405.86 17.699 62.93 35.381 103.296 51.8 128.662 34.889 10.402 75.855 8.409 118.772-7.65z" fill="#D2221A" p-id="2695"></path><path d="M313.462 358.118S284.53 746.792 440.45 838.883L313.462 358.118zM320.522 355.977s165.285 359.99 153.959 480.748c0 0 51.793-222.807-153.959-480.748z" fill="#FFFFFF" p-id="2696"></path><path d="M329.866 353.144s234.471 226.723 172.644 475.08c0 0 118.694-217.259-172.644-475.08z" fill="#FFFFFF" p-id="2697"></path><path d="M843.193 565.188c-4.595-11.621-12.25-19.843-22.761-24.445-1.918-1.148-7.701-4.044-17.229-4.044-11.604 0-30.919 4.444-57.032 25.613-29.066 23.565-60.724 62.837-94.092 116.724-23.197 37.463-32.777 65.724-30.15 88.938 2.443 21.583 15.502 39.018 41.096 54.866 14.425 8.932 29.119 13.461 43.674 13.463h0.009c27.189 0 66.756-16.209 100.854-93.408 20.869-47.247 53.248-133.158 35.631-177.707z m-25.475-9.071l-167.56 227.838c-13.02-100.954 167.56-227.838 167.56-227.838z m3.36 2.307c-42.721 182.177-158.306 239.577-158.306 239.577 56.905-38.402 158.306-239.577 158.306-239.577z m4.446 3.053c-13.323 219.408-149.412 245.682-149.412 245.682 130.247-62.203 149.412-245.682 149.412-245.682zM662.283 685.354c32.658-52.742 63.426-91.004 91.446-113.72 23.382-18.956 39.811-22.936 49.475-22.936 4.786 0 7.981 0.96 9.666 1.654-24.042 9.569-76.395 42.027-154.788 152.152-7.258 10.195-13.38 19.461-18.533 27.899 4.742-13.235 12.295-28.19 22.734-45.049z m134.303 52.692c-24.925 56.43-56.004 86.256-89.878 86.256h-0.007c-0.139 0-0.278-0.007-0.417-0.009 39.31-33.518 127.269-124.14 122.757-260.762 1.126 1.844 2.122 3.864 2.993 6.068 11.694 29.574-1.227 90.969-35.448 168.447z" fill="#D2221A" p-id="2698"></path></svg>