<?xml version="1.0" standalone="no"?><!DOCTYPE svg PUBLIC "-//W3C//DTD SVG 1.1//EN" "http://www.w3.org/Graphics/SVG/1.1/DTD/svg11.dtd"><svg t="1523532578679" class="icon" style="" viewBox="0 0 1024 1024" version="1.1" xmlns="http://www.w3.org/2000/svg" p-id="2833" xmlns:xlink="http://www.w3.org/1999/xlink" width="200" height="200"><defs><style type="text/css"></style></defs><path d="M896 153.6c-5.12 0-7.68 0-10.24 2.56L460.8 256c-15.36 0-25.6 10.24-25.6 25.6v358.4c-53.76-35.84-140.8-35.84-217.6 5.12-97.28 51.2-140.8 148.48-99.84 215.04 40.96 66.56 156.16 79.36 253.44 28.16 64-33.28 104.96-97.28 115.2-148.48V299.52l384-89.6V537.6c-53.76-35.84-140.8-35.84-217.6 5.12-97.28 51.2-140.8 148.48-99.84 215.04 40.96 66.56 158.72 81.92 258.56 33.28 74.24-38.4 104.96-97.28 110.08-151.04V179.2c0-15.36-10.24-25.6-25.6-25.6zM358.4 844.8c-74.24 40.96-158.72 40.96-194.56-2.56-35.84-43.52-5.12-112.64 69.12-151.04 74.24-40.96 140.8-38.4 184.32-5.12 48.64 33.28 5.12 125.44-58.88 158.72z m440.32-97.28c-74.24 40.96-163.84 35.84-197.12-10.24-35.84-43.52-2.56-112.64 71.68-151.04s143.36-40.96 181.76-5.12c40.96 40.96 5.12 130.56-56.32 166.4z" p-id="2834" fill="#c1c1c1"></path></svg>